<svg xmlns="http://www.w3.org/2000/svg" width="1360" height="1130" viewBox="0 0 1360 1130" font-family="'Loma','Noto Sans Thai','Segoe UI',Helvetica,Arial,sans-serif">
<defs>
  <radialGradient id="bg" cx="0.5" cy="0.04" r="1"><stop offset="0" stop-color="#fcfdff"/><stop offset="1" stop-color="#eef1f6"/></radialGradient>
  <filter id="sh" x="-25%" y="-25%" width="150%" height="160%"><feDropShadow dx="0" dy="3" stdDeviation="3" flood-color="#1c2530" flood-opacity="0.18"/></filter>
  <marker id="arr" markerWidth="9" markerHeight="9" refX="7" refY="3" orient="auto" markerUnits="strokeWidth"><path d="M0,0 L7,3 L0,6 Z" fill="#6b7888"/></marker>
</defs>
<rect width="1360" height="1130" fill="url(#bg)"/>
<text x="680" y="34" font-size="22" font-weight="800" fill="#222b36" text-anchor="middle">GSB Local Dev — Server Topology (WSL2 / single Docker engine)</text>
<text x="680" y="56" font-size="12" fill="#7a8794" text-anchor="middle">เขียว = UP · แดง = DOWN (ตั้งไว้ ไม่ได้รัน) · เหลือง = นอกเครื่อง/VPN · ฟ้า = gateway · ทุก domain ลงท้าย .gsb.or.th</text>
<text x="34" y="92" font-size="11" font-weight="700" fill="#7a8794">สถานะ:</text>
<rect x="86" y="82" width="13" height="13" rx="3" fill="#d6efdd" stroke="#4a9d68"/>
<text x="104" y="93" font-size="10.5" fill="#4a5663">UP</text>
<rect x="132.4" y="82" width="13" height="13" rx="3" fill="#f4dadb" stroke="#cf8c90"/>
<text x="150.4" y="93" font-size="10.5" fill="#4a5663">DOWN</text>
<rect x="191.2" y="82" width="13" height="13" rx="3" fill="#f7ecc8" stroke="#d8b24e"/>
<text x="209.2" y="93" font-size="10.5" fill="#4a5663">external/VPN</text>
<rect x="299.6" y="82" width="13" height="13" rx="3" fill="#cfe0f3" stroke="#6f9cd0"/>
<text x="317.6" y="93" font-size="10.5" fill="#4a5663">gateway</text>
<g filter="url(#sh)"><rect x="677" y="65" width="58" height="38" rx="3" fill="#f7ecc8" stroke="#d8b24e" stroke-width="1.4"/><rect x="682" y="70" width="48" height="25" rx="2" fill="#ffffff" opacity="0.55"/><rect x="699" y="103" width="14" height="6" fill="#b58a2a"/><rect x="689" y="109" width="34" height="4" rx="2" fill="#d8b24e"/></g>
<text x="706" y="128" font-size="12" font-weight="700" fill="#735713" text-anchor="middle">Windows Browser</text>
<text x="706" y="142" font-size="10" fill="#735713" opacity="0.85" text-anchor="middle">*.gsb.or.th → 127.0.0.1</text>
<g filter="url(#sh)"><polygon points="669,197 675,191 745,191 739,197" fill="#6f9cd0"/><polygon points="739,197 745,191 745,225 739,231" fill="#3f6fb0"/><rect x="669" y="197" width="70" height="34" rx="4" fill="#cfe0f3" stroke="#6f9cd0" stroke-width="1.4"/><path d="M681 207 l8 7 l-8 7" fill="none" stroke="#3f6fb0" stroke-width="2"/><path d="M695 207 l8 7 l-8 7" fill="none" stroke="#3f6fb0" stroke-width="2" opacity="0.6"/><rect x="711" y="222" width="4" height="5" rx="1" fill="#3f6fb0"/><rect x="717" y="222" width="4" height="5" rx="1" fill="#3f6fb0"/><rect x="723" y="222" width="4" height="5" rx="1" fill="#3f6fb0"/><rect x="729" y="222" width="4" height="5" rx="1" fill="#3f6fb0"/><circle cx="730" cy="206" r="2.6" fill="#3a8fd6"/></g>
<text x="704" y="246" font-size="12" font-weight="700" fill="#234d80" text-anchor="middle">gsb-gateway (nginx)</text>
<text x="704" y="260" font-size="10" fill="#234d80" opacity="0.85" text-anchor="middle">:80 + :443 · route by Host</text>
<text x="704" y="276" font-size="10" fill="#9aa6b2" text-anchor="middle">project: gateway</text>
<rect x="40" y="300" width="300" height="352" rx="12" fill="#ffffff" stroke="#c7d0db" stroke-dasharray="6 5"/>
<text x="54" y="319" font-size="11.5" font-weight="700" font-style="italic" fill="#7c8a98">WebCSR family — cbswebdev / cbswebuat</text>
<g filter="url(#sh)"><polygon points="155,343 161,337 231,337 225,343" fill="#4a9d68"/><polygon points="225,343 231,337 231,371 225,377" fill="#2f7a4e"/><rect x="155" y="343" width="70" height="34" rx="4" fill="#d6efdd" stroke="#4a9d68" stroke-width="1.4"/><path d="M167 353 l8 7 l-8 7" fill="none" stroke="#2f7a4e" stroke-width="2"/><path d="M181 353 l8 7 l-8 7" fill="none" stroke="#2f7a4e" stroke-width="2" opacity="0.6"/><rect x="197" y="368" width="4" height="5" rx="1" fill="#2f7a4e"/><rect x="203" y="368" width="4" height="5" rx="1" fill="#2f7a4e"/><rect x="209" y="368" width="4" height="5" rx="1" fill="#2f7a4e"/><rect x="215" y="368" width="4" height="5" rx="1" fill="#2f7a4e"/><circle cx="216" cy="352" r="2.6" fill="#2fbf5a"/></g>
<text x="190" y="392" font-size="12" font-weight="700" fill="#1f5236" text-anchor="middle">gsb-proxy (nginx)</text>
<text x="190" y="406" font-size="10" fill="#1f5236" opacity="0.85" text-anchor="middle">:443 path router</text>
<g filter="url(#sh)"><polygon points="89,448 97,440 139,440 131,448" fill="#4a9d68"/><polygon points="131,448 139,440 139,504 131,512" fill="#2f7a4e"/><rect x="89" y="448" width="42" height="64" rx="4" fill="#d6efdd" stroke="#4a9d68" stroke-width="1.4"/><rect x="95" y="455" width="24" height="2.6" rx="1.3" fill="#4a9d68" opacity="0.55"/><rect x="95" y="460" width="24" height="2.6" rx="1.3" fill="#4a9d68" opacity="0.55"/><rect x="95" y="465" width="24" height="2.6" rx="1.3" fill="#4a9d68" opacity="0.55"/><rect x="95" y="470" width="24" height="2.6" rx="1.3" fill="#4a9d68" opacity="0.55"/><circle cx="123" cy="457" r="2.8" fill="#2fbf5a"/><rect x="96" y="492" width="28" height="6" rx="2" fill="#ffffff" opacity="0.6" stroke="#4a9d68" stroke-width="0.6"/><rect x="96" y="501" width="28" height="6" rx="2" fill="#ffffff" opacity="0.6" stroke="#4a9d68" stroke-width="0.6"/></g>
<text x="110" y="527" font-size="12" font-weight="700" fill="#1f5236" text-anchor="middle">webcsr UP</text>
<text x="110" y="541" font-size="10" fill="#1f5236" opacity="0.85" text-anchor="middle">Tomcat :8080</text>
<g filter="url(#sh)"><polygon points="259,448 267,440 309,440 301,448" fill="#cf8c90"/><polygon points="301,448 309,440 309,504 301,512" fill="#a64b51"/><rect x="259" y="448" width="42" height="64" rx="4" fill="#f4dadb" stroke="#cf8c90" stroke-width="1.4"/><rect x="265" y="455" width="24" height="2.6" rx="1.3" fill="#cf8c90" opacity="0.55"/><rect x="265" y="460" width="24" height="2.6" rx="1.3" fill="#cf8c90" opacity="0.55"/><rect x="265" y="465" width="24" height="2.6" rx="1.3" fill="#cf8c90" opacity="0.55"/><rect x="265" y="470" width="24" height="2.6" rx="1.3" fill="#cf8c90" opacity="0.55"/><circle cx="293" cy="457" r="2.8" fill="#b6bcc2"/><rect x="266" y="492" width="28" height="6" rx="2" fill="#ffffff" opacity="0.6" stroke="#cf8c90" stroke-width="0.6"/><rect x="266" y="501" width="28" height="6" rx="2" fill="#ffffff" opacity="0.6" stroke="#cf8c90" stroke-width="0.6"/></g>
<text x="280" y="527" font-size="12" font-weight="700" fill="#7d2e33" text-anchor="middle">webadmin DOWN</text>
<text x="280" y="541" font-size="10" fill="#7d2e33" opacity="0.85" text-anchor="middle">Tomcat :8082</text>
<text x="190" y="636" font-size="10" fill="#9aa6b2" text-anchor="middle">project: webcsr_dev_v111800</text>
<rect x="370" y="300" width="210" height="352" rx="12" fill="#ffffff" stroke="#c7d0db" stroke-dasharray="6 5"/>
<text x="384" y="319" font-size="11.5" font-weight="700" font-style="italic" fill="#7c8a98">CBS Banking — gsbschoolbank-dev</text>
<g filter="url(#sh)"><polygon points="440,343 446,337 516,337 510,343" fill="#cf8c90"/><polygon points="510,343 516,337 516,371 510,377" fill="#a64b51"/><rect x="440" y="343" width="70" height="34" rx="4" fill="#f4dadb" stroke="#cf8c90" stroke-width="1.4"/><path d="M452 353 l8 7 l-8 7" fill="none" stroke="#a64b51" stroke-width="2"/><path d="M466 353 l8 7 l-8 7" fill="none" stroke="#a64b51" stroke-width="2" opacity="0.6"/><rect x="482" y="368" width="4" height="5" rx="1" fill="#a64b51"/><rect x="488" y="368" width="4" height="5" rx="1" fill="#a64b51"/><rect x="494" y="368" width="4" height="5" rx="1" fill="#a64b51"/><rect x="500" y="368" width="4" height="5" rx="1" fill="#a64b51"/><circle cx="501" cy="352" r="2.6" fill="#b6bcc2"/></g>
<text x="475" y="392" font-size="12" font-weight="700" fill="#7d2e33" text-anchor="middle">gsb-school-nginx</text>
<text x="475" y="406" font-size="10" fill="#7d2e33" opacity="0.85" text-anchor="middle">:443</text>
<g filter="url(#sh)"><polygon points="454,428 462,420 504,420 496,428" fill="#cf8c90"/><polygon points="496,428 504,420 504,484 496,492" fill="#a64b51"/><rect x="454" y="428" width="42" height="64" rx="4" fill="#f4dadb" stroke="#cf8c90" stroke-width="1.4"/><rect x="460" y="435" width="24" height="2.6" rx="1.3" fill="#cf8c90" opacity="0.55"/><rect x="460" y="440" width="24" height="2.6" rx="1.3" fill="#cf8c90" opacity="0.55"/><rect x="460" y="445" width="24" height="2.6" rx="1.3" fill="#cf8c90" opacity="0.55"/><rect x="460" y="450" width="24" height="2.6" rx="1.3" fill="#cf8c90" opacity="0.55"/><circle cx="488" cy="437" r="2.8" fill="#b6bcc2"/><rect x="461" y="472" width="28" height="6" rx="2" fill="#ffffff" opacity="0.6" stroke="#cf8c90" stroke-width="0.6"/><rect x="461" y="481" width="28" height="6" rx="2" fill="#ffffff" opacity="0.6" stroke="#cf8c90" stroke-width="0.6"/></g>
<text x="475" y="507" font-size="12" font-weight="700" fill="#7d2e33" text-anchor="middle">gsb-school-web</text>
<text x="475" y="521" font-size="10" fill="#7d2e33" opacity="0.85" text-anchor="middle">:3000</text>
<g filter="url(#sh)"><polygon points="454,528 462,520 504,520 496,528" fill="#cf8c90"/><polygon points="496,528 504,520 504,584 496,592" fill="#a64b51"/><rect x="454" y="528" width="42" height="64" rx="4" fill="#f4dadb" stroke="#cf8c90" stroke-width="1.4"/><rect x="460" y="535" width="24" height="2.6" rx="1.3" fill="#cf8c90" opacity="0.55"/><rect x="460" y="540" width="24" height="2.6" rx="1.3" fill="#cf8c90" opacity="0.55"/><rect x="460" y="545" width="24" height="2.6" rx="1.3" fill="#cf8c90" opacity="0.55"/><rect x="460" y="550" width="24" height="2.6" rx="1.3" fill="#cf8c90" opacity="0.55"/><circle cx="488" cy="537" r="2.8" fill="#b6bcc2"/><rect x="461" y="572" width="28" height="6" rx="2" fill="#ffffff" opacity="0.6" stroke="#cf8c90" stroke-width="0.6"/><rect x="461" y="581" width="28" height="6" rx="2" fill="#ffffff" opacity="0.6" stroke="#cf8c90" stroke-width="0.6"/></g>
<text x="475" y="607" font-size="12" font-weight="700" fill="#7d2e33" text-anchor="middle">gsb-school-db</text>
<text x="475" y="621" font-size="10" fill="#7d2e33" opacity="0.85" text-anchor="middle">(pg) :5433</text>
<text x="475" y="640" font-size="10" fill="#9aa6b2" text-anchor="middle">project: server · ALL DOWN</text>
<rect x="610" y="300" width="330" height="352" rx="12" fill="#ffffff" stroke="#c7d0db" stroke-dasharray="6 5"/>
<text x="624" y="319" font-size="11.5" font-weight="700" font-style="italic" fill="#7c8a98">Linkage Center — linkage-dev / linkage-uat</text>
<g filter="url(#sh)"><polygon points="664,334 672,326 714,326 706,334" fill="#cf8c90"/><polygon points="706,334 714,326 714,390 706,398" fill="#a64b51"/><rect x="664" y="334" width="42" height="64" rx="4" fill="#f4dadb" stroke="#cf8c90" stroke-width="1.4"/><rect x="670" y="341" width="24" height="2.6" rx="1.3" fill="#cf8c90" opacity="0.55"/><rect x="670" y="346" width="24" height="2.6" rx="1.3" fill="#cf8c90" opacity="0.55"/><rect x="670" y="351" width="24" height="2.6" rx="1.3" fill="#cf8c90" opacity="0.55"/><rect x="670" y="356" width="24" height="2.6" rx="1.3" fill="#cf8c90" opacity="0.55"/><circle cx="698" cy="343" r="2.8" fill="#b6bcc2"/><rect x="671" y="378" width="28" height="6" rx="2" fill="#ffffff" opacity="0.6" stroke="#cf8c90" stroke-width="0.6"/><rect x="671" y="387" width="28" height="6" rx="2" fill="#ffffff" opacity="0.6" stroke="#cf8c90" stroke-width="0.6"/></g>
<text x="685" y="413" font-size="12" font-weight="700" fill="#7d2e33" text-anchor="middle">gsb-machine-webapp</text>
<text x="685" y="427" font-size="10" fill="#7d2e33" opacity="0.85" text-anchor="middle">:3000</text>
<g filter="url(#sh)"><polygon points="844,334 852,326 894,326 886,334" fill="#cf8c90"/><polygon points="886,334 894,326 894,390 886,398" fill="#a64b51"/><rect x="844" y="334" width="42" height="64" rx="4" fill="#f4dadb" stroke="#cf8c90" stroke-width="1.4"/><rect x="850" y="341" width="24" height="2.6" rx="1.3" fill="#cf8c90" opacity="0.55"/><rect x="850" y="346" width="24" height="2.6" rx="1.3" fill="#cf8c90" opacity="0.55"/><rect x="850" y="351" width="24" height="2.6" rx="1.3" fill="#cf8c90" opacity="0.55"/><rect x="850" y="356" width="24" height="2.6" rx="1.3" fill="#cf8c90" opacity="0.55"/><circle cx="878" cy="343" r="2.8" fill="#b6bcc2"/><rect x="851" y="378" width="28" height="6" rx="2" fill="#ffffff" opacity="0.6" stroke="#cf8c90" stroke-width="0.6"/><rect x="851" y="387" width="28" height="6" rx="2" fill="#ffffff" opacity="0.6" stroke="#cf8c90" stroke-width="0.6"/></g>
<text x="865" y="413" font-size="12" font-weight="700" fill="#7d2e33" text-anchor="middle">gsb-machine-thaid</text>
<text x="865" y="427" font-size="10" fill="#7d2e33" opacity="0.85" text-anchor="middle">:3000 /thaid/</text>
<g filter="url(#sh)"><polygon points="664,434 672,426 714,426 706,434" fill="#cf8c90"/><polygon points="706,434 714,426 714,490 706,498" fill="#a64b51"/><rect x="664" y="434" width="42" height="64" rx="4" fill="#f4dadb" stroke="#cf8c90" stroke-width="1.4"/><rect x="670" y="441" width="24" height="2.6" rx="1.3" fill="#cf8c90" opacity="0.55"/><rect x="670" y="446" width="24" height="2.6" rx="1.3" fill="#cf8c90" opacity="0.55"/><rect x="670" y="451" width="24" height="2.6" rx="1.3" fill="#cf8c90" opacity="0.55"/><rect x="670" y="456" width="24" height="2.6" rx="1.3" fill="#cf8c90" opacity="0.55"/><circle cx="698" cy="443" r="2.8" fill="#b6bcc2"/><rect x="671" y="478" width="28" height="6" rx="2" fill="#ffffff" opacity="0.6" stroke="#cf8c90" stroke-width="0.6"/><rect x="671" y="487" width="28" height="6" rx="2" fill="#ffffff" opacity="0.6" stroke="#cf8c90" stroke-width="0.6"/></g>
<text x="685" y="513" font-size="12" font-weight="700" fill="#7d2e33" text-anchor="middle">gsb-machine-api</text>
<g filter="url(#sh)"><polygon points="844,434 852,426 894,426 886,434" fill="#cf8c90"/><polygon points="886,434 894,426 894,490 886,498" fill="#a64b51"/><rect x="844" y="434" width="42" height="64" rx="4" fill="#f4dadb" stroke="#cf8c90" stroke-width="1.4"/><rect x="850" y="441" width="24" height="2.6" rx="1.3" fill="#cf8c90" opacity="0.55"/><rect x="850" y="446" width="24" height="2.6" rx="1.3" fill="#cf8c90" opacity="0.55"/><rect x="850" y="451" width="24" height="2.6" rx="1.3" fill="#cf8c90" opacity="0.55"/><rect x="850" y="456" width="24" height="2.6" rx="1.3" fill="#cf8c90" opacity="0.55"/><circle cx="878" cy="443" r="2.8" fill="#b6bcc2"/><rect x="851" y="478" width="28" height="6" rx="2" fill="#ffffff" opacity="0.6" stroke="#cf8c90" stroke-width="0.6"/><rect x="851" y="487" width="28" height="6" rx="2" fill="#ffffff" opacity="0.6" stroke="#cf8c90" stroke-width="0.6"/></g>
<text x="865" y="513" font-size="12" font-weight="700" fill="#7d2e33" text-anchor="middle">gsb-machine-redis</text>
<g filter="url(#sh)"><polygon points="664,534 672,526 714,526 706,534" fill="#cf8c90"/><polygon points="706,534 714,526 714,590 706,598" fill="#a64b51"/><rect x="664" y="534" width="42" height="64" rx="4" fill="#f4dadb" stroke="#cf8c90" stroke-width="1.4"/><rect x="670" y="541" width="24" height="2.6" rx="1.3" fill="#cf8c90" opacity="0.55"/><rect x="670" y="546" width="24" height="2.6" rx="1.3" fill="#cf8c90" opacity="0.55"/><rect x="670" y="551" width="24" height="2.6" rx="1.3" fill="#cf8c90" opacity="0.55"/><rect x="670" y="556" width="24" height="2.6" rx="1.3" fill="#cf8c90" opacity="0.55"/><circle cx="698" cy="543" r="2.8" fill="#b6bcc2"/><rect x="671" y="578" width="28" height="6" rx="2" fill="#ffffff" opacity="0.6" stroke="#cf8c90" stroke-width="0.6"/><rect x="671" y="587" width="28" height="6" rx="2" fill="#ffffff" opacity="0.6" stroke="#cf8c90" stroke-width="0.6"/></g>
<text x="685" y="613" font-size="12" font-weight="700" fill="#7d2e33" text-anchor="middle">gsblk-mysql</text>
<text x="685" y="627" font-size="10" fill="#7d2e33" opacity="0.85" text-anchor="middle">:3307</text>
<g filter="url(#sh)"><polygon points="844,534 852,526 894,526 886,534" fill="#cf8c90"/><polygon points="886,534 894,526 894,590 886,598" fill="#a64b51"/><rect x="844" y="534" width="42" height="64" rx="4" fill="#f4dadb" stroke="#cf8c90" stroke-width="1.4"/><rect x="850" y="541" width="24" height="2.6" rx="1.3" fill="#cf8c90" opacity="0.55"/><rect x="850" y="546" width="24" height="2.6" rx="1.3" fill="#cf8c90" opacity="0.55"/><rect x="850" y="551" width="24" height="2.6" rx="1.3" fill="#cf8c90" opacity="0.55"/><rect x="850" y="556" width="24" height="2.6" rx="1.3" fill="#cf8c90" opacity="0.55"/><circle cx="878" cy="543" r="2.8" fill="#b6bcc2"/><rect x="851" y="578" width="28" height="6" rx="2" fill="#ffffff" opacity="0.6" stroke="#cf8c90" stroke-width="0.6"/><rect x="851" y="587" width="28" height="6" rx="2" fill="#ffffff" opacity="0.6" stroke="#cf8c90" stroke-width="0.6"/></g>
<text x="865" y="613" font-size="12" font-weight="700" fill="#7d2e33" text-anchor="middle">gsblk-fwd</text>
<text x="865" y="627" font-size="10" fill="#7d2e33" opacity="0.85" text-anchor="middle">:3001</text>
<text x="775" y="640" font-size="10" fill="#9aa6b2" text-anchor="middle">projects: server / gsblk · DOWN</text>
<rect x="970" y="300" width="350" height="352" rx="12" fill="#ffffff" stroke="#c7d0db" stroke-dasharray="6 5"/>
<text x="984" y="319" font-size="11.5" font-weight="700" font-style="italic" fill="#7c8a98">TANACHOK — tanachok-dev / tanachok-sit</text>
<g filter="url(#sh)"><polygon points="1010,349 1016,343 1086,343 1080,349" fill="#cf8c90"/><polygon points="1080,349 1086,343 1086,377 1080,383" fill="#a64b51"/><rect x="1010" y="349" width="70" height="34" rx="4" fill="#f4dadb" stroke="#cf8c90" stroke-width="1.4"/><path d="M1022 359 l8 7 l-8 7" fill="none" stroke="#a64b51" stroke-width="2"/><path d="M1036 359 l8 7 l-8 7" fill="none" stroke="#a64b51" stroke-width="2" opacity="0.6"/><rect x="1052" y="374" width="4" height="5" rx="1" fill="#a64b51"/><rect x="1058" y="374" width="4" height="5" rx="1" fill="#a64b51"/><rect x="1064" y="374" width="4" height="5" rx="1" fill="#a64b51"/><rect x="1070" y="374" width="4" height="5" rx="1" fill="#a64b51"/><circle cx="1071" cy="358" r="2.6" fill="#b6bcc2"/></g>
<text x="1045" y="398" font-size="12" font-weight="700" fill="#7d2e33" text-anchor="middle">tanachok-gateway</text>
<text x="1045" y="412" font-size="10" fill="#7d2e33" opacity="0.85" text-anchor="middle">:8800 → :80</text>
<g filter="url(#sh)"><polygon points="1204,334 1212,326 1254,326 1246,334" fill="#cf8c90"/><polygon points="1246,334 1254,326 1254,390 1246,398" fill="#a64b51"/><rect x="1204" y="334" width="42" height="64" rx="4" fill="#f4dadb" stroke="#cf8c90" stroke-width="1.4"/><rect x="1210" y="341" width="24" height="2.6" rx="1.3" fill="#cf8c90" opacity="0.55"/><rect x="1210" y="346" width="24" height="2.6" rx="1.3" fill="#cf8c90" opacity="0.55"/><rect x="1210" y="351" width="24" height="2.6" rx="1.3" fill="#cf8c90" opacity="0.55"/><rect x="1210" y="356" width="24" height="2.6" rx="1.3" fill="#cf8c90" opacity="0.55"/><circle cx="1238" cy="343" r="2.8" fill="#b6bcc2"/><rect x="1211" y="378" width="28" height="6" rx="2" fill="#ffffff" opacity="0.6" stroke="#cf8c90" stroke-width="0.6"/><rect x="1211" y="387" width="28" height="6" rx="2" fill="#ffffff" opacity="0.6" stroke="#cf8c90" stroke-width="0.6"/></g>
<text x="1225" y="413" font-size="12" font-weight="700" fill="#7d2e33" text-anchor="middle">tanachok-web</text>
<text x="1225" y="427" font-size="10" fill="#7d2e33" opacity="0.85" text-anchor="middle">:5173</text>
<g filter="url(#sh)"><polygon points="1024,434 1032,426 1074,426 1066,434" fill="#cf8c90"/><polygon points="1066,434 1074,426 1074,490 1066,498" fill="#a64b51"/><rect x="1024" y="434" width="42" height="64" rx="4" fill="#f4dadb" stroke="#cf8c90" stroke-width="1.4"/><rect x="1030" y="441" width="24" height="2.6" rx="1.3" fill="#cf8c90" opacity="0.55"/><rect x="1030" y="446" width="24" height="2.6" rx="1.3" fill="#cf8c90" opacity="0.55"/><rect x="1030" y="451" width="24" height="2.6" rx="1.3" fill="#cf8c90" opacity="0.55"/><rect x="1030" y="456" width="24" height="2.6" rx="1.3" fill="#cf8c90" opacity="0.55"/><circle cx="1058" cy="443" r="2.8" fill="#b6bcc2"/><rect x="1031" y="478" width="28" height="6" rx="2" fill="#ffffff" opacity="0.6" stroke="#cf8c90" stroke-width="0.6"/><rect x="1031" y="487" width="28" height="6" rx="2" fill="#ffffff" opacity="0.6" stroke="#cf8c90" stroke-width="0.6"/></g>
<text x="1045" y="513" font-size="12" font-weight="700" fill="#7d2e33" text-anchor="middle">tanachok-api</text>
<text x="1045" y="527" font-size="10" fill="#7d2e33" opacity="0.85" text-anchor="middle">:8085</text>
<g filter="url(#sh)"><polygon points="1204,434 1212,426 1254,426 1246,434" fill="#cf8c90"/><polygon points="1246,434 1254,426 1254,490 1246,498" fill="#a64b51"/><rect x="1204" y="434" width="42" height="64" rx="4" fill="#f4dadb" stroke="#cf8c90" stroke-width="1.4"/><rect x="1210" y="441" width="24" height="2.6" rx="1.3" fill="#cf8c90" opacity="0.55"/><rect x="1210" y="446" width="24" height="2.6" rx="1.3" fill="#cf8c90" opacity="0.55"/><rect x="1210" y="451" width="24" height="2.6" rx="1.3" fill="#cf8c90" opacity="0.55"/><rect x="1210" y="456" width="24" height="2.6" rx="1.3" fill="#cf8c90" opacity="0.55"/><circle cx="1238" cy="443" r="2.8" fill="#b6bcc2"/><rect x="1211" y="478" width="28" height="6" rx="2" fill="#ffffff" opacity="0.6" stroke="#cf8c90" stroke-width="0.6"/><rect x="1211" y="487" width="28" height="6" rx="2" fill="#ffffff" opacity="0.6" stroke="#cf8c90" stroke-width="0.6"/></g>
<text x="1225" y="513" font-size="12" font-weight="700" fill="#7d2e33" text-anchor="middle">tanachok-pdf</text>
<text x="1225" y="527" font-size="10" fill="#7d2e33" opacity="0.85" text-anchor="middle">:7000</text>
<g filter="url(#sh)"><polygon points="1024,534 1032,526 1074,526 1066,534" fill="#cf8c90"/><polygon points="1066,534 1074,526 1074,590 1066,598" fill="#a64b51"/><rect x="1024" y="534" width="42" height="64" rx="4" fill="#f4dadb" stroke="#cf8c90" stroke-width="1.4"/><rect x="1030" y="541" width="24" height="2.6" rx="1.3" fill="#cf8c90" opacity="0.55"/><rect x="1030" y="546" width="24" height="2.6" rx="1.3" fill="#cf8c90" opacity="0.55"/><rect x="1030" y="551" width="24" height="2.6" rx="1.3" fill="#cf8c90" opacity="0.55"/><rect x="1030" y="556" width="24" height="2.6" rx="1.3" fill="#cf8c90" opacity="0.55"/><circle cx="1058" cy="543" r="2.8" fill="#b6bcc2"/><rect x="1031" y="578" width="28" height="6" rx="2" fill="#ffffff" opacity="0.6" stroke="#cf8c90" stroke-width="0.6"/><rect x="1031" y="587" width="28" height="6" rx="2" fill="#ffffff" opacity="0.6" stroke="#cf8c90" stroke-width="0.6"/></g>
<text x="1045" y="613" font-size="12" font-weight="700" fill="#7d2e33" text-anchor="middle">tanachok-postgres</text>
<text x="1045" y="627" font-size="10" fill="#7d2e33" opacity="0.85" text-anchor="middle">:5432</text>
<g filter="url(#sh)"><polygon points="1204,534 1212,526 1254,526 1246,534" fill="#cf8c90"/><polygon points="1246,534 1254,526 1254,590 1246,598" fill="#a64b51"/><rect x="1204" y="534" width="42" height="64" rx="4" fill="#f4dadb" stroke="#cf8c90" stroke-width="1.4"/><rect x="1210" y="541" width="24" height="2.6" rx="1.3" fill="#cf8c90" opacity="0.55"/><rect x="1210" y="546" width="24" height="2.6" rx="1.3" fill="#cf8c90" opacity="0.55"/><rect x="1210" y="551" width="24" height="2.6" rx="1.3" fill="#cf8c90" opacity="0.55"/><rect x="1210" y="556" width="24" height="2.6" rx="1.3" fill="#cf8c90" opacity="0.55"/><circle cx="1238" cy="543" r="2.8" fill="#b6bcc2"/><rect x="1211" y="578" width="28" height="6" rx="2" fill="#ffffff" opacity="0.6" stroke="#cf8c90" stroke-width="0.6"/><rect x="1211" y="587" width="28" height="6" rx="2" fill="#ffffff" opacity="0.6" stroke="#cf8c90" stroke-width="0.6"/></g>
<text x="1225" y="613" font-size="12" font-weight="700" fill="#7d2e33" text-anchor="middle">tanachok-adminer</text>
<text x="1225" y="627" font-size="10" fill="#7d2e33" opacity="0.85" text-anchor="middle">:8081</text>
<text x="1145" y="640" font-size="10" fill="#9aa6b2" text-anchor="middle">project: tanachok-next · DOWN</text>
<rect x="40" y="700" width="260" height="200" rx="12" fill="#ffffff" stroke="#c7d0db" stroke-dasharray="6 5"/>
<text x="54" y="719" font-size="11.5" font-weight="700" font-style="italic" fill="#7c8a98">PDTeller (separate — not via gateway)</text>
<g filter="url(#sh)"><polygon points="149,738 157,730 199,730 191,738" fill="#4a9d68"/><polygon points="191,738 199,730 199,794 191,802" fill="#2f7a4e"/><rect x="149" y="738" width="42" height="64" rx="4" fill="#d6efdd" stroke="#4a9d68" stroke-width="1.4"/><rect x="155" y="745" width="24" height="2.6" rx="1.3" fill="#4a9d68" opacity="0.55"/><rect x="155" y="750" width="24" height="2.6" rx="1.3" fill="#4a9d68" opacity="0.55"/><rect x="155" y="755" width="24" height="2.6" rx="1.3" fill="#4a9d68" opacity="0.55"/><rect x="155" y="760" width="24" height="2.6" rx="1.3" fill="#4a9d68" opacity="0.55"/><circle cx="183" cy="747" r="2.8" fill="#2fbf5a"/><rect x="156" y="782" width="28" height="6" rx="2" fill="#ffffff" opacity="0.6" stroke="#4a9d68" stroke-width="0.6"/><rect x="156" y="791" width="28" height="6" rx="2" fill="#ffffff" opacity="0.6" stroke="#4a9d68" stroke-width="0.6"/></g>
<text x="170" y="817" font-size="12" font-weight="700" fill="#1f5236" text-anchor="middle">pdteller-tomcat UP</text>
<text x="170" y="831" font-size="10" fill="#1f5236" opacity="0.85" text-anchor="middle">:18080 · .jnlp</text>
<text x="170" y="878" font-size="10" fill="#9aa6b2" text-anchor="middle">project: lab</text>
<rect x="330" y="700" width="390" height="200" rx="12" fill="#ffffff" stroke="#c7d0db" stroke-dasharray="6 5"/>
<text x="344" y="719" font-size="11.5" font-weight="700" font-style="italic" fill="#7c8a98">CI/CD Lab (all DOWN now) — ci-lab</text>
<g filter="url(#sh)"><polygon points="379,738 387,730 429,730 421,738" fill="#cf8c90"/><polygon points="421,738 429,730 429,794 421,802" fill="#a64b51"/><rect x="379" y="738" width="42" height="64" rx="4" fill="#f4dadb" stroke="#cf8c90" stroke-width="1.4"/><rect x="385" y="745" width="24" height="2.6" rx="1.3" fill="#cf8c90" opacity="0.55"/><rect x="385" y="750" width="24" height="2.6" rx="1.3" fill="#cf8c90" opacity="0.55"/><rect x="385" y="755" width="24" height="2.6" rx="1.3" fill="#cf8c90" opacity="0.55"/><rect x="385" y="760" width="24" height="2.6" rx="1.3" fill="#cf8c90" opacity="0.55"/><circle cx="413" cy="747" r="2.8" fill="#b6bcc2"/><rect x="386" y="782" width="28" height="6" rx="2" fill="#ffffff" opacity="0.6" stroke="#cf8c90" stroke-width="0.6"/><rect x="386" y="791" width="28" height="6" rx="2" fill="#ffffff" opacity="0.6" stroke="#cf8c90" stroke-width="0.6"/></g>
<text x="400" y="817" font-size="12" font-weight="700" fill="#7d2e33" text-anchor="middle">ci-gitlab</text>
<text x="400" y="831" font-size="10" fill="#7d2e33" opacity="0.85" text-anchor="middle">:8929 +ssh</text>
<g filter="url(#sh)"><polygon points="504,738 512,730 554,730 546,738" fill="#cf8c90"/><polygon points="546,738 554,730 554,794 546,802" fill="#a64b51"/><rect x="504" y="738" width="42" height="64" rx="4" fill="#f4dadb" stroke="#cf8c90" stroke-width="1.4"/><rect x="510" y="745" width="24" height="2.6" rx="1.3" fill="#cf8c90" opacity="0.55"/><rect x="510" y="750" width="24" height="2.6" rx="1.3" fill="#cf8c90" opacity="0.55"/><rect x="510" y="755" width="24" height="2.6" rx="1.3" fill="#cf8c90" opacity="0.55"/><rect x="510" y="760" width="24" height="2.6" rx="1.3" fill="#cf8c90" opacity="0.55"/><circle cx="538" cy="747" r="2.8" fill="#b6bcc2"/><rect x="511" y="782" width="28" height="6" rx="2" fill="#ffffff" opacity="0.6" stroke="#cf8c90" stroke-width="0.6"/><rect x="511" y="791" width="28" height="6" rx="2" fill="#ffffff" opacity="0.6" stroke="#cf8c90" stroke-width="0.6"/></g>
<text x="525" y="817" font-size="12" font-weight="700" fill="#7d2e33" text-anchor="middle">ci-jenkins</text>
<text x="525" y="831" font-size="10" fill="#7d2e33" opacity="0.85" text-anchor="middle">:8090</text>
<g filter="url(#sh)"><polygon points="629,738 637,730 679,730 671,738" fill="#cf8c90"/><polygon points="671,738 679,730 679,794 671,802" fill="#a64b51"/><rect x="629" y="738" width="42" height="64" rx="4" fill="#f4dadb" stroke="#cf8c90" stroke-width="1.4"/><rect x="635" y="745" width="24" height="2.6" rx="1.3" fill="#cf8c90" opacity="0.55"/><rect x="635" y="750" width="24" height="2.6" rx="1.3" fill="#cf8c90" opacity="0.55"/><rect x="635" y="755" width="24" height="2.6" rx="1.3" fill="#cf8c90" opacity="0.55"/><rect x="635" y="760" width="24" height="2.6" rx="1.3" fill="#cf8c90" opacity="0.55"/><circle cx="663" cy="747" r="2.8" fill="#b6bcc2"/><rect x="636" y="782" width="28" height="6" rx="2" fill="#ffffff" opacity="0.6" stroke="#cf8c90" stroke-width="0.6"/><rect x="636" y="791" width="28" height="6" rx="2" fill="#ffffff" opacity="0.6" stroke="#cf8c90" stroke-width="0.6"/></g>
<text x="650" y="817" font-size="12" font-weight="700" fill="#7d2e33" text-anchor="middle">ci-nexus</text>
<text x="650" y="831" font-size="10" fill="#7d2e33" opacity="0.85" text-anchor="middle">:8091 reg:8092</text>
<text x="525" y="884" font-size="10" fill="#9aa6b2" text-anchor="middle">source · Multibranch build · docker registry</text>
<rect x="750" y="700" width="230" height="200" rx="12" fill="#ffffff" stroke="#c7d0db" stroke-dasharray="6 5"/>
<text x="764" y="719" font-size="11.5" font-weight="700" font-style="italic" fill="#7c8a98">TellerPortal (DOWN)</text>
<g filter="url(#sh)"><polygon points="794,738 802,730 844,730 836,738" fill="#cf8c90"/><polygon points="836,738 844,730 844,794 836,802" fill="#a64b51"/><rect x="794" y="738" width="42" height="64" rx="4" fill="#f4dadb" stroke="#cf8c90" stroke-width="1.4"/><rect x="800" y="745" width="24" height="2.6" rx="1.3" fill="#cf8c90" opacity="0.55"/><rect x="800" y="750" width="24" height="2.6" rx="1.3" fill="#cf8c90" opacity="0.55"/><rect x="800" y="755" width="24" height="2.6" rx="1.3" fill="#cf8c90" opacity="0.55"/><rect x="800" y="760" width="24" height="2.6" rx="1.3" fill="#cf8c90" opacity="0.55"/><circle cx="828" cy="747" r="2.8" fill="#b6bcc2"/><rect x="801" y="782" width="28" height="6" rx="2" fill="#ffffff" opacity="0.6" stroke="#cf8c90" stroke-width="0.6"/><rect x="801" y="791" width="28" height="6" rx="2" fill="#ffffff" opacity="0.6" stroke="#cf8c90" stroke-width="0.6"/></g>
<text x="815" y="817" font-size="12" font-weight="700" fill="#7d2e33" text-anchor="middle">teller-portal</text>
<text x="815" y="831" font-size="10" fill="#7d2e33" opacity="0.85" text-anchor="middle">:8088</text>
<g filter="url(#sh)"><polygon points="904,738 912,730 954,730 946,738" fill="#cf8c90"/><polygon points="946,738 954,730 954,794 946,802" fill="#a64b51"/><rect x="904" y="738" width="42" height="64" rx="4" fill="#f4dadb" stroke="#cf8c90" stroke-width="1.4"/><rect x="910" y="745" width="24" height="2.6" rx="1.3" fill="#cf8c90" opacity="0.55"/><rect x="910" y="750" width="24" height="2.6" rx="1.3" fill="#cf8c90" opacity="0.55"/><rect x="910" y="755" width="24" height="2.6" rx="1.3" fill="#cf8c90" opacity="0.55"/><rect x="910" y="760" width="24" height="2.6" rx="1.3" fill="#cf8c90" opacity="0.55"/><circle cx="938" cy="747" r="2.8" fill="#b6bcc2"/><rect x="911" y="782" width="28" height="6" rx="2" fill="#ffffff" opacity="0.6" stroke="#cf8c90" stroke-width="0.6"/><rect x="911" y="791" width="28" height="6" rx="2" fill="#ffffff" opacity="0.6" stroke="#cf8c90" stroke-width="0.6"/></g>
<text x="925" y="817" font-size="12" font-weight="700" fill="#7d2e33" text-anchor="middle">teller-tis</text>
<text x="925" y="831" font-size="10" fill="#7d2e33" opacity="0.85" text-anchor="middle">:8443</text>
<rect x="1010" y="700" width="310" height="200" rx="12" fill="#ffffff" stroke="#c7d0db" stroke-dasharray="6 5"/>
<text x="1024" y="719" font-size="11.5" font-weight="700" font-style="italic" fill="#7c8a98">BAHTNET mock (DOWN) — local-dev</text>
<g filter="url(#sh)"><polygon points="1064,738 1072,730 1114,730 1106,738" fill="#cf8c90"/><polygon points="1106,738 1114,730 1114,794 1106,802" fill="#a64b51"/><rect x="1064" y="738" width="42" height="64" rx="4" fill="#f4dadb" stroke="#cf8c90" stroke-width="1.4"/><rect x="1070" y="745" width="24" height="2.6" rx="1.3" fill="#cf8c90" opacity="0.55"/><rect x="1070" y="750" width="24" height="2.6" rx="1.3" fill="#cf8c90" opacity="0.55"/><rect x="1070" y="755" width="24" height="2.6" rx="1.3" fill="#cf8c90" opacity="0.55"/><rect x="1070" y="760" width="24" height="2.6" rx="1.3" fill="#cf8c90" opacity="0.55"/><circle cx="1098" cy="747" r="2.8" fill="#b6bcc2"/><rect x="1071" y="782" width="28" height="6" rx="2" fill="#ffffff" opacity="0.6" stroke="#cf8c90" stroke-width="0.6"/><rect x="1071" y="791" width="28" height="6" rx="2" fill="#ffffff" opacity="0.6" stroke="#cf8c90" stroke-width="0.6"/></g>
<text x="1085" y="817" font-size="12" font-weight="700" fill="#7d2e33" text-anchor="middle">gsb-bahtnet-service</text>
<text x="1085" y="831" font-size="10" fill="#7d2e33" opacity="0.85" text-anchor="middle">:8083</text>
<g filter="url(#sh)"><polygon points="1214,738 1222,730 1264,730 1256,738" fill="#cf8c90"/><polygon points="1256,738 1264,730 1264,794 1256,802" fill="#a64b51"/><rect x="1214" y="738" width="42" height="64" rx="4" fill="#f4dadb" stroke="#cf8c90" stroke-width="1.4"/><rect x="1220" y="745" width="24" height="2.6" rx="1.3" fill="#cf8c90" opacity="0.55"/><rect x="1220" y="750" width="24" height="2.6" rx="1.3" fill="#cf8c90" opacity="0.55"/><rect x="1220" y="755" width="24" height="2.6" rx="1.3" fill="#cf8c90" opacity="0.55"/><rect x="1220" y="760" width="24" height="2.6" rx="1.3" fill="#cf8c90" opacity="0.55"/><circle cx="1248" cy="747" r="2.8" fill="#b6bcc2"/><rect x="1221" y="782" width="28" height="6" rx="2" fill="#ffffff" opacity="0.6" stroke="#cf8c90" stroke-width="0.6"/><rect x="1221" y="791" width="28" height="6" rx="2" fill="#ffffff" opacity="0.6" stroke="#cf8c90" stroke-width="0.6"/></g>
<text x="1235" y="817" font-size="12" font-weight="700" fill="#7d2e33" text-anchor="middle">bahtnet-core-mock</text>
<text x="1235" y="831" font-size="10" fill="#7d2e33" opacity="0.85" text-anchor="middle">:8089</text>
<rect x="40" y="948" width="380" height="158" rx="12" fill="#ffffff" stroke="#c7d0db" stroke-dasharray="6 5"/>
<text x="54" y="967" font-size="11.5" font-weight="700" font-style="italic" fill="#7c8a98">Core Banking — external / VPN</text>
<g filter="url(#sh)"><polygon points="209,976 217,968 259,968 251,976" fill="#d8b24e"/><polygon points="251,976 259,968 259,1032 251,1040" fill="#b58a2a"/><rect x="209" y="976" width="42" height="64" rx="4" fill="#f7ecc8" stroke="#d8b24e" stroke-width="1.4"/><rect x="215" y="983" width="24" height="2.6" rx="1.3" fill="#d8b24e" opacity="0.55"/><rect x="215" y="988" width="24" height="2.6" rx="1.3" fill="#d8b24e" opacity="0.55"/><rect x="215" y="993" width="24" height="2.6" rx="1.3" fill="#d8b24e" opacity="0.55"/><rect x="215" y="998" width="24" height="2.6" rx="1.3" fill="#d8b24e" opacity="0.55"/><circle cx="243" cy="985" r="2.8" fill="#e0a92a"/><rect x="216" y="1020" width="28" height="6" rx="2" fill="#ffffff" opacity="0.6" stroke="#d8b24e" stroke-width="0.6"/><rect x="216" y="1029" width="28" height="6" rx="2" fill="#ffffff" opacity="0.6" stroke="#d8b24e" stroke-width="0.6"/></g>
<text x="230" y="1055" font-size="12" font-weight="700" fill="#735713" text-anchor="middle">CBS (Sanchez)</text>
<text x="230" y="1069" font-size="10" fill="#735713" opacity="0.85" text-anchor="middle">cbsdev/sit/uat · 10.82.77.x</text>
<text x="230" y="1092" font-size="10" fill="#9aa6b2" text-anchor="middle">via GSB VPN + extra_hosts · Sanchez JDBC (ScDriver) / MRPC</text>
<rect x="440" y="948" width="540" height="158" rx="12" fill="#ffffff" stroke="#c7d0db" stroke-dasharray="6 5"/>
<text x="454" y="967" font-size="11.5" font-weight="700" font-style="italic" fill="#7c8a98">Host ports published (reachable from Windows)</text>
<text x="458" y="992" font-size="10" fill="#4a5663" text-anchor="start">80/443 gateway · 8080 webcsr · 8082 webadmin · 18080 pdteller · 8443 teller-tis</text>
<text x="458" y="1018" font-size="10" fill="#4a5663" text-anchor="start">8929 gitlab · 8090 jenkins · 8091/8092 nexus · 8800 tanachok · 5173 tanachok-web</text>
<text x="458" y="1044" font-size="10" fill="#4a5663" text-anchor="start">3307 gsblk-mysql · 3001 gsblk-fwd · 5433 school-db · 8083/8089 bahtnet</text>
<path d="M706,116 C 706,155 704,155 704,194" fill="none" stroke="#6b7888" stroke-width="2"  marker-end="url(#arr)"/>
<rect x="689.8" y="146" width="30.4" height="16" rx="3" fill="#ffffff" opacity="0.92"/>
<text x="705" y="158" font-size="10" fill="#4a5663" text-anchor="middle">:443</text>
<path d="M704,234 C 704,288.5 190,288.5 190,343" fill="none" stroke="#6b7888" stroke-width="2"  marker-end="url(#arr)"/>
<rect x="423.4" y="279.5" width="47.199999999999996" height="16" rx="3" fill="#ffffff" opacity="0.92"/>
<text x="447" y="291.5" font-size="10" fill="#4a5663" text-anchor="middle">cbsweb*</text>
<path d="M704,234 C 704,288.5 475,288.5 475,343" fill="none" stroke="#6b7888" stroke-width="2"  marker-end="url(#arr)"/>
<rect x="557.5" y="279.5" width="64" height="16" rx="3" fill="#ffffff" opacity="0.92"/>
<text x="589.5" y="291.5" font-size="10" fill="#4a5663" text-anchor="middle">gsbschool*</text>
<path d="M704,234 C 704,283 685,283 685,332" fill="none" stroke="#6b7888" stroke-width="2"  marker-end="url(#arr)"/>
<rect x="668.1" y="274" width="52.8" height="16" rx="3" fill="#ffffff" opacity="0.92"/>
<text x="694.5" y="286" font-size="10" fill="#4a5663" text-anchor="middle">linkage*</text>
<path d="M704,234 C 704,291.5 1045,291.5 1045,349" fill="none" stroke="#6b7888" stroke-width="2"  marker-end="url(#arr)"/>
<rect x="845.3" y="282.5" width="58.4" height="16" rx="3" fill="#ffffff" opacity="0.92"/>
<text x="874.5" y="294.5" font-size="10" fill="#4a5663" text-anchor="middle">tanachok*</text>
<path d="M190,377 C 190,411.5 110,411.5 110,446" fill="none" stroke="#6b7888" stroke-width="2"  marker-end="url(#arr)"/>
<rect x="123.6" y="402.5" width="52.8" height="16" rx="3" fill="#ffffff" opacity="0.92"/>
<text x="150" y="414.5" font-size="10" fill="#4a5663" text-anchor="middle">/WebCSR/</text>
<path d="M190,377 C 190,411.5 280,411.5 280,446" fill="none" stroke="#6b7888" stroke-width="2"  marker-end="url(#arr)"/>
<rect x="203" y="402.5" width="64" height="16" rx="3" fill="#ffffff" opacity="0.92"/>
<text x="235" y="414.5" font-size="10" fill="#4a5663" text-anchor="middle">/WebAdmin/</text>
<path d="M475,377 C 475,401.5 475,401.5 475,426" fill="none" stroke="#6b7888" stroke-width="2"  marker-end="url(#arr)"/>
<path d="M475,494 C 475,510 475,510 475,526" fill="none" stroke="#6b7888" stroke-width="2"  marker-end="url(#arr)"/>
<path d="M110,514 C 110,744 230,744 230,974" fill="none" stroke="#C79A2E" stroke-width="2" stroke-dasharray="6 4" marker-end="url(#arr)"/>
<rect x="140.8" y="735" width="58.4" height="16" rx="3" fill="#ffffff" opacity="0.92"/>
<text x="170" y="747" font-size="10" fill="#4a5663" text-anchor="middle">JDBC/MRPC</text>
</svg>